<svg width="22" height="32" viewBox="0 0 22 32" fill="none" xmlns="http://www.w3.org/2000/svg">
<path d="M21.0856 18.415V18.585C21.073 19.43 20.8461 20.225 20.4579 20.92C20.4453 20.9475 20.4277 20.975 20.41 21.0025C20.1907 21.3825 19.9209 21.73 19.6108 22.0375C19.3008 22.345 18.9478 22.615 18.5646 22.8325C18.552 22.8425 18.5369 22.85 18.5243 22.855C18.4436 22.215 18.2394 21.6125 17.9344 21.0725C17.9218 21.05 17.9092 21.025 17.894 21.0025C17.7276 20.71 17.5285 20.4375 17.3041 20.1875C17.236 20.11 17.1629 20.0325 17.0898 19.96C16.9587 19.83 16.8201 19.7075 16.6738 19.5925C16.4772 19.4325 16.2654 19.29 16.0436 19.165C15.3478 18.765 14.5486 18.5275 13.6965 18.5H8.3948C7.7595 18.49 7.15194 18.3625 6.59227 18.1375C6.37294 18.0525 6.16369 17.95 5.96201 17.835C5.96201 17.8325 5.95949 17.8325 5.95949 17.8325C5.74016 17.7075 5.5284 17.565 5.33176 17.4075C5.10486 17.2275 4.8931 17.03 4.7015 16.8125C4.47965 16.565 4.28301 16.2925 4.1141 16.0025C4.09141 15.965 3.45864 14.995 3.43847 13.585V13.415C3.44099 13.225 3.45359 13.0375 3.4788 12.855C3.66788 12.965 3.85948 13.0575 4.06368 13.14H4.0662C4.21998 13.2025 4.37629 13.2575 4.53763 13.3025C4.5931 13.32 4.64604 13.335 4.7015 13.3475C4.78722 13.37 4.87293 13.39 4.96117 13.4075C5.0015 13.415 5.04184 13.4225 5.08218 13.4275C5.10739 13.4325 5.1326 13.4375 5.15781 13.44C5.21579 13.4525 5.27377 13.46 5.33176 13.4675C5.48302 13.485 5.63428 13.495 5.78806 13.5H16.2175C16.3713 13.5025 16.5251 13.515 16.6738 13.535C16.8881 13.56 17.0999 13.6 17.3041 13.6525C17.5209 13.7075 17.7302 13.7775 17.9344 13.86C18.1512 13.945 18.3629 14.0475 18.5646 14.165C18.9478 14.3825 19.3008 14.6525 19.6108 14.96C19.9234 15.27 20.1957 15.62 20.4151 16.0025C20.4302 16.0275 20.4453 16.0525 20.4579 16.0775C20.8461 16.7725 21.073 17.5675 21.0856 18.415ZM18.5243 22.855C18.3352 22.9625 18.1386 23.0575 17.9344 23.1375C17.7302 23.22 17.5209 23.29 17.3041 23.345C17.0999 23.3975 16.8881 23.4375 16.6738 23.4625C16.4949 23.485 16.3133 23.4975 16.1293 23.5H4.55528C4.38133 23.5 4.21494 23.5775 4.1015 23.71L3.43595 24.5025L0.919963 27.4975H0.917442L0.882147 27.54C0.561977 27.92 0.834248 28.5 1.33593 28.5H8.3948C8.72001 28.5 8.98472 28.7625 8.98472 29.085V31.415C8.98472 31.7375 9.24943 32 9.57464 32H12.4284C12.7537 32 13.0184 31.7375 13.0184 31.415V29.085C13.0184 28.7625 13.2831 28.5 13.6083 28.5C14.4932 28.4875 15.3251 28.245 16.0436 27.8325C16.2654 27.7075 16.4772 27.565 16.6738 27.405C16.7369 27.355 16.7999 27.3025 16.8604 27.25C16.9386 27.1825 17.0167 27.11 17.0898 27.0375C17.1629 26.965 17.236 26.8875 17.3041 26.81C17.526 26.56 17.7251 26.29 17.8915 26C17.9066 25.975 17.9218 25.95 17.9344 25.925C18.3251 25.23 18.552 24.4325 18.5646 23.585V23.415C18.5621 23.225 18.5495 23.0375 18.5243 22.855ZM13.0184 2.915V0.585C13.0184 0.2625 12.7537 0 12.4284 0H9.57464C9.24943 0 8.98472 0.2625 8.98472 0.585V2.915C8.98472 3.2375 8.72001 3.5 8.3948 3.5H5.95949C5.2889 3.5 4.65108 3.63 4.0662 3.865C3.84939 3.9525 3.63763 4.055 3.43847 4.1725C3.21662 4.2975 3.00485 4.4425 2.80569 4.6C2.75527 4.64 2.70737 4.68 2.65947 4.7225C2.57376 4.7975 2.48804 4.8725 2.40737 4.9525C2.32669 5.0325 2.25106 5.11 2.17795 5.195C1.9561 5.4425 1.76198 5.71 1.5956 5.9975C1.36871 6.3825 1.19475 6.8025 1.07879 7.245C0.972904 7.645 0.917442 8.065 0.917442 8.5C0.917442 8.9325 0.972904 9.3475 1.07375 9.745C1.27543 10.5225 1.65862 11.2275 2.17795 11.81C2.36955 12.025 2.5788 12.225 2.80569 12.405C3.00485 12.5625 3.21662 12.7075 3.43847 12.8325C3.45107 12.8425 3.46368 12.85 3.4788 12.855C3.55948 12.2175 3.76368 11.6175 4.0662 11.0775C4.29309 10.665 4.58049 10.29 4.91327 9.96C4.9889 9.885 5.06453 9.8125 5.1452 9.745C5.39478 9.525 5.66957 9.33 5.95949 9.165C6.65529 8.765 7.45446 8.5275 8.30657 8.5H17.4428C17.6167 8.5 17.7831 8.4225 17.8965 8.29L18.5646 7.495L21.0856 4.4975L21.1184 4.46C21.4386 4.08 21.1638 3.5 20.6646 3.5H13.6083C13.2831 3.5 13.0184 3.2375 13.0184 2.915Z" fill="white"/>
</svg>
