<svg width="512" height="512" viewBox="0 0 512 512" fill="none" xmlns="http://www.w3.org/2000/svg">
<rect width="512" height="512" fill="black"/>
<path d="M171.48 155.428C232.024 155.428 239.163 212.987 239.927 224.719C239.99 225.742 239.052 226.516 238.066 226.274C231.817 224.727 225.298 223.921 218.595 223.921L128.523 224.018C124.763 224.018 121.28 222.003 119.372 218.708L87.9991 164.413C85.7173 160.465 88.5239 155.509 93.0319 155.501L171.48 155.428Z" fill="url(#paint0_linear_1165_4339)"/>
<path d="M346.598 356.571C285.235 356.571 278.74 297.458 278.119 286.83C278.072 286.024 278.811 285.419 279.59 285.613C285.967 287.224 292.629 288.071 299.483 288.071L390.413 287.974C393.649 287.974 396.639 289.706 398.277 292.535L431.399 349.859C433.092 352.792 431.009 356.491 427.654 356.491L346.606 356.563L346.598 356.571Z" fill="url(#paint1_linear_1165_4339)"/>
<path d="M413.61 216.822C415.391 219.981 413.141 223.921 409.547 223.921H356.31C328.626 223.921 304.115 237.813 289.366 258.998C282.489 268.877 278.331 280.408 276.765 292.39C274.371 310.73 262.915 356.563 208.867 356.563H145.405C141.493 356.563 137.884 354.444 135.944 350.995L104.452 295.162C102.671 292.003 104.921 288.063 108.514 288.063H161.751C189.435 288.063 213.939 274.179 228.695 253.002C235.557 243.148 239.723 231.641 241.281 219.683C243.666 201.383 255.131 155.428 309.195 155.428H372.656C376.568 155.428 380.178 157.548 382.118 160.997L413.61 216.822Z" fill="url(#paint2_linear_1165_4339)"/>
<defs>
<linearGradient id="paint0_linear_1165_4339" x1="87.1885" y1="256" x2="432" y2="256" gradientUnits="userSpaceOnUse">
<stop stop-color="#FBF3C9"/>
<stop offset="1" stop-color="#FFB66B"/>
</linearGradient>
<linearGradient id="paint1_linear_1165_4339" x1="87.1885" y1="256" x2="432" y2="256" gradientUnits="userSpaceOnUse">
<stop stop-color="#FBF3C9"/>
<stop offset="1" stop-color="#FFB66B"/>
</linearGradient>
<linearGradient id="paint2_linear_1165_4339" x1="87.1885" y1="256" x2="432" y2="256" gradientUnits="userSpaceOnUse">
<stop stop-color="#FBF3C9"/>
<stop offset="1" stop-color="#FFB66B"/>
</linearGradient>
</defs>
</svg>
